<svg width="148" height="148" viewBox="0 0 148 148" fill="none" xmlns="http://www.w3.org/2000/svg">
<path d="M148 74C148 114.869 114.869 148 74 148C33.1309 148 0 114.869 0 74C0 33.1309 33.1309 0 74 0C114.869 0 148 33.1309 148 74Z" fill="#1686E0"/>
<path d="M124.875 74C124.875 102.097 102.097 124.875 74 124.875C45.9025 124.875 23.125 102.097 23.125 74C23.125 45.9025 45.9025 23.125 74 23.125C102.097 23.125 124.875 45.9025 124.875 74Z" fill="black"/>
<path d="M117.938 74C117.938 98.2661 98.2661 117.938 74 117.938C49.734 117.938 30.0625 98.2661 30.0625 74C30.0625 49.734 49.734 30.0625 74 30.0625C98.2661 30.0625 117.938 49.734 117.938 74Z" fill="#F56325"/>
<path d="M50.2713 65.3202C55.4558 65.3202 55.1352 77.9939 57.5815 83.7337C57.9923 84.6881 59.1127 84.5659 59.383 83.5347C62.1608 72.8421 60.8926 46.8614 68.4262 46.8614C76.3129 46.8614 74.3637 80.4816 77.4334 94.182C77.6604 95.2224 78.8061 95.3128 79.1411 94.3087C82.3837 84.5343 82.0198 63.2124 88.1555 63.2124C94.5038 63.2124 93.9634 81.0741 96.4494 88.2703C96.7772 89.2338 97.8617 89.2654 98.2256 88.3156C100.038 83.5709 100.618 74 107.463 74H118.073C119.064 74 119.871 75.0132 119.871 76.257C119.871 77.5009 119.064 78.5231 118.073 78.5231H107.463C101.8 78.5231 103.724 94.2815 97.1807 94.2815C91.1135 94.2815 91.7692 77.139 89.1715 69.5402C88.8545 68.5994 87.7952 68.6266 87.4926 69.5674C84.5923 78.8261 84.6463 101.139 77.9774 101.139C70.4942 101.139 73.1604 65.6051 69.1756 53.0988C68.8765 52.1444 67.7921 52.0947 67.4498 53.0445C63.7424 63.2215 65.6952 89.7991 59.0047 89.7991C53.0995 89.7991 52.7465 77.5597 50.9702 71.5349C50.6784 70.576 49.6264 70.5082 49.2625 71.4128C47.4034 75.9404 46.2144 83.0462 40.6156 83.0462H38.5523C37.5616 83.0462 36.7545 82.033 36.7545 80.7892C36.7545 79.5408 37.5616 78.5276 38.5523 78.5276H40.6156C45.3822 78.5276 44.64 65.3202 50.2713 65.3202Z" fill="black"/>
</svg>
