<svg width="196" height="48" viewBox="0 0 196 48" fill="none" xmlns="http://www.w3.org/2000/svg">
<g id="Logo_OptMux 1" clip-path="url(#clip0_133_20)">
<path id="Layer" fill-rule="evenodd" clip-rule="evenodd" d="M45.0859 22.4V10.7C45.0859 7.56667 46.0677 5.03333 48.0312 3.1C50.0625 1.03333 52.737 0 56.0547 0C59.3047 0 61.9792 1.03333 64.0781 3.1C66.0417 5.03333 67.0234 7.56667 67.0234 10.7V22.4C67.0234 25.4667 66.0417 28 64.0781 30C61.9792 32.0667 59.3047 33.1 56.0547 33.1C52.737 33.1 50.0625 32.0667 48.0312 30C46.0677 28 45.0859 25.4667 45.0859 22.4ZM49.4531 22.4C49.4531 24.3333 49.9609 25.8667 50.9766 27C52.263 28.4667 53.9557 29.2 56.0547 29.2C58.0859 29.2 59.7448 28.4667 61.0312 27C62.1146 25.8667 62.6563 24.3333 62.6563 22.4V10.7C62.6563 8.76667 62.1146 7.2 61.0312 6C59.7448 4.53333 58.0859 3.8 56.0547 3.8C53.9557 3.8 52.263 4.53333 50.9766 6C49.9609 7.2 49.4531 8.76667 49.4531 10.7V22.4Z" fill="white"/>
<path id="Layer_2" d="M171.531 9.5C172.75 8.9 174.07 9.8 174.07 11.1V24.5C174.07 26.9 173.19 28.9667 171.43 30.7C169.737 32.3 167.604 33.1 165.031 33.1C162.526 33.1 160.427 32.3 158.734 30.7C156.974 28.9667 156.094 26.9 156.094 24.5V11.4C156.094 10.7 156.5 10.1 157.109 9.8L157.82 9.5C159.039 8.9 160.461 9.8 160.461 11.1V24.5C160.461 26.1667 160.901 27.4 161.781 28.2C162.661 28.9333 163.745 29.3 165.031 29.3C166.385 29.3 167.503 28.9333 168.383 28.2C169.263 27.4 169.703 26.1667 169.703 24.5V11.4C169.703 10.7 170.211 10.1 170.82 9.8L171.531 9.5Z" fill="white"/>
<path id="Layer_3" d="M113.742 32.4C112.523 32.9 111.203 32.1 111.203 30.8V10.7C111.203 7.63333 112.185 5.1 114.148 3.1C116.18 1.03333 118.854 0 122.172 0C125.151 0 127.69 1.03333 129.789 3.1C130.331 3.63333 130.703 4.13333 130.906 4.6C131.245 4.06667 131.651 3.6 132.125 3.2C134.359 1.06667 136.898 0 139.742 0C142.992 0 145.667 1.03333 147.766 3.1C149.729 5.03333 150.711 7.56667 150.711 10.7V30.4C150.711 31.1 150.305 31.8 149.594 32.1L148.883 32.4C147.664 32.9 146.344 32.1 146.344 30.8V10.7C146.344 8.76667 145.836 7.2 144.82 6C143.534 4.53333 141.841 3.8 139.742 3.8C137.643 3.8 135.951 4.53333 134.664 6C133.648 7.2 133.141 8.76667 133.141 10.7V30.4C133.141 31.1 132.734 31.8 132.023 32.1L131.313 32.4C130.094 32.9 128.773 32.1 128.773 30.8V10.7C128.773 8.76667 128.266 7.2 127.25 6C125.964 4.53333 124.271 3.8 122.172 3.8C120.073 3.8 118.38 4.53333 117.094 6C116.078 7.2 115.57 8.76667 115.57 10.7V30.4C115.57 31.1 115.164 31.8 114.453 32.1L113.742 32.4Z" fill="white"/>
<path id="Layer_4" d="M101.148 32.4001C99.9297 32.9001 98.6094 32.1001 98.6094 30.8001V13.1001H95.7656C94.5469 13.1001 93.6328 11.7001 94.1406 10.6001L94.3437 10.2001C94.6484 9.60005 95.2578 9.20006 95.9687 9.20006H98.6094V2.60006C98.6094 1.90006 99.0156 1.30006 99.625 1.00006L100.437 0.700055C101.555 0.200055 102.977 1.00006 102.977 2.30006V9.20006H105.719C107.039 9.20006 107.953 10.5001 107.445 11.7001L107.242 12.0001C106.937 12.7001 106.328 13.1001 105.617 13.1001H102.977V30.4001C102.977 31.1001 102.57 31.8001 101.859 32.1001L101.148 32.4001Z" fill="white"/>
<path id="Layer_5" fill-rule="evenodd" clip-rule="evenodd" d="M91.5 17.3V24.5C91.5 26.9 90.5859 28.9667 88.7578 30.7001C87.0651 32.3001 84.9661 33.1 82.4609 33.1C80.5651 33.1 79.0078 32.5 77.7891 31.3V39.2001C77.7891 39.9001 77.3828 40.5 76.6719 40.8L75.9609 41.1C74.7422 41.7 73.4219 40.8 73.4219 39.5V17.3C73.4219 14.9667 74.3359 12.9334 76.1641 11.2C77.8568 9.60005 79.9557 8.80005 82.4609 8.80005C84.9661 8.80005 87.0651 9.60005 88.7578 11.2C90.5859 12.8667 91.5 14.9 91.5 17.3ZM82.4609 12.6C81.1745 12.6 80.0573 12.9667 79.1094 13.7C78.2292 14.4334 77.7891 15.6334 77.7891 17.3V24.5C77.7891 26.1667 78.2292 27.4001 79.1094 28.2001C80.0573 28.9334 81.1745 29.3 82.4609 29.3C83.7474 29.3 84.8307 28.9334 85.7109 28.2001C86.6589 27.4001 87.1328 26.1667 87.1328 24.5V17.3C87.1328 15.6334 86.6589 14.4334 85.7109 13.7C84.8307 12.9667 83.7474 12.6 82.4609 12.6Z" fill="white"/>
<path id="Layer_6" d="M173.766 40.7C172.648 40.2 172.141 38.8 172.852 37.7L183.719 20.5L178.234 11.7C177.523 10.6 178.031 9.2 179.148 8.7C180.164 8.2 181.383 8.6 181.891 9.6L186.258 17L190.523 9.6C191.031 8.6 192.25 8.2 193.266 8.7C194.484 9.2 194.891 10.6 194.18 11.7L188.797 20.5L194.281 29.3C194.891 30.4 194.484 31.8 193.266 32.3C192.25 32.8 191.133 32.4 190.523 31.4L186.258 24L176.508 39.9C176 40.8 174.781 41.2 173.766 40.7Z" fill="white"/>
<path id="Layer_7" d="M122.172 48V43.9H120.852L121.156 43.4H124L123.695 43.9H122.68V47.7L122.172 48Z" fill="white"/>
<path id="Layer_8" d="M125.219 47.9V43.5L125.523 43.4H127.352L127.148 43.9H125.727V45.4H127.352L127.148 45.9H125.727V47.3H127.859V47.4L127.555 47.9H125.219Z" fill="white"/>
<path id="Layer_9" d="M132.43 46.2001V46.4001C132.43 46.8667 132.294 47.2334 132.023 47.5C131.753 47.7667 131.38 47.9001 130.906 47.9001C130.5 47.9001 130.161 47.7667 129.891 47.5C129.62 47.2334 129.484 46.8667 129.484 46.4001V44.8C129.484 44.4 129.62 44.0667 129.891 43.8C130.161 43.4667 130.5 43.3 130.906 43.3C131.38 43.3 131.753 43.4667 132.023 43.8C132.294 44.0667 132.43 44.3667 132.43 44.7001L131.922 45H131.82V44.8C131.82 44.5334 131.753 44.3334 131.617 44.2001C131.482 44.0001 131.245 43.9001 130.906 43.9001C130.635 43.9001 130.432 44.0001 130.297 44.2001C130.161 44.3334 130.094 44.5334 130.094 44.8V46.4001C130.094 46.6667 130.161 46.9 130.297 47.1C130.432 47.3 130.635 47.4001 130.906 47.4001C131.245 47.4001 131.482 47.3 131.617 47.1C131.753 46.9 131.82 46.7 131.82 46.5L132.43 46.2001Z" fill="white"/>
<path id="Layer_10" d="M134.461 48V44.8C134.461 44.4 134.596 44.0667 134.867 43.8C135.138 43.4667 135.51 43.3 135.984 43.3C136.391 43.3 136.763 43.4667 137.102 43.8C137.372 44.0667 137.474 44.4 137.406 44.8V47.7001L136.898 48V44.8C136.898 44.5334 136.831 44.3334 136.695 44.2001C136.492 44.0001 136.255 43.9001 135.984 43.9001C135.714 43.9001 135.477 44.0001 135.273 44.2001C135.138 44.3334 135.07 44.5334 135.07 44.8V47.7001L134.563 48H134.461Z" fill="white"/>
<path id="Layer_11" fill-rule="evenodd" clip-rule="evenodd" d="M139.539 46.4001V44.8C139.539 44.4 139.674 44.0667 139.945 43.8C140.216 43.4667 140.555 43.3 140.961 43.3C141.435 43.3 141.807 43.4667 142.078 43.8C142.349 44.0667 142.484 44.4 142.484 44.8V46.4001C142.484 46.8667 142.349 47.2334 142.078 47.5C141.807 47.7667 141.435 47.9001 140.961 47.9001C140.555 47.9001 140.216 47.7667 139.945 47.5C139.674 47.2334 139.539 46.8667 139.539 46.4001ZM140.148 46.4001C140.148 46.6667 140.216 46.9 140.352 47.1C140.487 47.3 140.69 47.4001 140.961 47.4001C141.299 47.4001 141.536 47.3 141.672 47.1C141.807 46.9 141.875 46.6667 141.875 46.4001V44.8C141.875 44.5334 141.807 44.3334 141.672 44.2001C141.536 44.0001 141.299 43.9001 140.961 43.9001C140.69 43.9001 140.487 44.0001 140.352 44.2001C140.216 44.3334 140.148 44.5334 140.148 44.8V46.4001Z" fill="white"/>
<path id="Layer_12" d="M144.516 47.9001V43.5L145.125 43.3V47.3H147.156V47.4001L146.953 47.9001H144.516Z" fill="white"/>
<path id="Layer_13" fill-rule="evenodd" clip-rule="evenodd" d="M148.273 46.4001V44.8C148.273 44.4 148.409 44.0667 148.68 43.8C148.951 43.4667 149.323 43.3 149.797 43.3C150.203 43.3 150.542 43.4667 150.812 43.8C151.083 44.0667 151.219 44.4 151.219 44.8V46.4001C151.219 46.8667 151.083 47.2334 150.812 47.5C150.542 47.7667 150.203 47.9001 149.797 47.9001C149.323 47.9001 148.951 47.7667 148.68 47.5C148.409 47.2334 148.273 46.8667 148.273 46.4001ZM148.883 46.4001C148.883 46.6667 148.951 46.9 149.086 47.1C149.289 47.3 149.526 47.4001 149.797 47.4001C150.068 47.4001 150.305 47.3 150.508 47.1C150.643 46.9 150.711 46.6667 150.711 46.4001V44.8C150.711 44.5334 150.643 44.3334 150.508 44.2001C150.305 44.0001 150.068 43.9001 149.797 43.9001C149.526 43.9001 149.289 44.0001 149.086 44.2001C148.951 44.3334 148.883 44.5334 148.883 44.8V46.4001Z" fill="white"/>
<path id="Layer_14" d="M156.297 45.4001V46.4001C156.297 46.8667 156.161 47.2334 155.891 47.5C155.62 47.7667 155.247 47.9001 154.773 47.9001C154.367 47.9001 154.029 47.7667 153.758 47.5C153.487 47.2334 153.352 46.8667 153.352 46.4001V44.8C153.352 44.4 153.487 44.0667 153.758 43.8C154.029 43.4667 154.367 43.3 154.773 43.3C155.247 43.3 155.62 43.4667 155.891 43.8C156.161 44.0667 156.297 44.4 156.297 44.8L155.688 45V44.8C155.688 44.5334 155.62 44.3334 155.484 44.2001C155.281 44.0001 155.044 43.9001 154.773 43.9001C154.503 43.9001 154.299 44.0001 154.164 44.2001C153.961 44.3334 153.893 44.5334 153.961 44.8V46.4001C153.893 46.6667 153.961 46.9 154.164 47.1C154.299 47.3 154.503 47.4001 154.773 47.4001C155.044 47.4001 155.281 47.3 155.484 47.1C155.62 46.9 155.688 46.7 155.688 46.5V45.9001H154.672L154.875 45.4001H156.297Z" fill="white"/>
<path id="Layer_15" d="M158.328 48V43.5L158.938 43.3V47.7001L158.43 48H158.328Z" fill="white"/>
<path id="Layer_16" fill-rule="evenodd" clip-rule="evenodd" d="M160.969 48V44.8C160.969 44.4 161.104 44.0667 161.375 43.8C161.646 43.4667 162.018 43.3 162.492 43.3C162.898 43.3 163.271 43.4667 163.609 43.8C163.88 44.0667 164.016 44.4 164.016 44.8V47.7001L163.406 48V45.9001H161.578V47.7001L161.07 48H160.969ZM161.477 45.4001H163.305V44.8C163.305 44.5334 163.237 44.3334 163.102 44.2001C162.898 44.0001 162.661 43.9001 162.391 43.9001C162.12 43.9001 161.917 44.0001 161.781 44.2001C161.578 44.3334 161.477 44.5334 161.477 44.8V45.4001Z" fill="white"/>
<path id="Layer_17" fill-rule="evenodd" clip-rule="evenodd" d="M169.297 47.9V43.5L169.602 43.4H170.719C171.125 43.4 171.464 43.5334 171.734 43.8C172.005 44.0667 172.141 44.4334 172.141 44.9V46.4C172.141 46.8 172.005 47.1334 171.734 47.4C171.464 47.7334 171.125 47.9 170.719 47.9H169.297ZM169.906 47.3H170.719C170.99 47.3 171.227 47.2 171.43 47C171.565 46.8667 171.633 46.6667 171.633 46.4V44.9C171.633 44.6334 171.565 44.4 171.43 44.2C171.227 44 170.99 43.9 170.719 43.9H169.906V47.3Z" fill="white"/>
<path id="Layer_18" d="M174.273 48V43.5L174.781 43.3H174.883V47.7001L174.273 48Z" fill="white"/>
<path id="Layer_19" d="M179.859 45.4001V46.4001C179.859 46.8667 179.724 47.2334 179.453 47.5C179.182 47.7667 178.81 47.9001 178.336 47.9001C177.93 47.9001 177.591 47.7667 177.32 47.5C177.049 47.2334 176.914 46.8667 176.914 46.4001V44.8C176.914 44.4 177.049 44.0667 177.32 43.8C177.591 43.4667 177.93 43.3 178.336 43.3C178.81 43.3 179.182 43.4667 179.453 43.8C179.724 44.0667 179.859 44.4 179.859 44.8L179.352 45H179.25V44.8C179.25 44.5334 179.182 44.3334 179.047 44.2001C178.911 44.0001 178.674 43.9001 178.336 43.9001C178.065 43.9001 177.862 44.0001 177.727 44.2001C177.591 44.3334 177.523 44.5334 177.523 44.8V46.4001C177.523 46.6667 177.591 46.9 177.727 47.1C177.862 47.3 178.065 47.4001 178.336 47.4001C178.674 47.4001 178.911 47.3 179.047 47.1C179.182 46.9 179.25 46.7 179.25 46.5V45.9001H178.234L178.539 45.4001H179.859Z" fill="white"/>
<path id="Layer_20" d="M181.891 48V43.5L182.5 43.3V47.7001L181.992 48H181.891Z" fill="white"/>
<path id="Layer_21" d="M184.938 48V43.9H183.719L183.922 43.4H186.867L186.563 43.9H185.547V47.7L185.039 48H184.938Z" fill="white"/>
<path id="Layer_22" fill-rule="evenodd" clip-rule="evenodd" d="M187.883 48V44.8C187.883 44.4 188.018 44.0667 188.289 43.8C188.56 43.4667 188.932 43.3 189.406 43.3C189.812 43.3 190.151 43.4667 190.422 43.8C190.693 44.0667 190.828 44.4 190.828 44.8V47.7001L190.32 48H190.219V45.9001H188.492V47.7001L187.883 48ZM188.492 45.4001H190.32V44.8C190.32 44.5334 190.253 44.3334 190.117 44.2001C189.914 44.0001 189.677 43.9001 189.406 43.9001C189.135 43.9001 188.898 44.0001 188.695 44.2001C188.56 44.3334 188.492 44.5334 188.492 44.8V45.4001Z" fill="white"/>
<path id="Layer_23" d="M192.859 47.9001V43.5L193.469 43.3V47.3H195.5V47.4001L195.297 47.9001H192.859Z" fill="white"/>
<path id="Layer_24" fill-rule="evenodd" clip-rule="evenodd" d="M0.5 19.3C0.5 8.7 9.33594 0 20.1016 0C30.9688 0 39.8047 8.7 39.8047 19.3C39.8047 30 30.9688 38.7 20.1016 38.7C9.33594 38.7 0.5 30 0.5 19.3ZM20.1016 32.2C27.4141 32.2 33.2031 26.5 33.2031 19.3C33.2031 12.2 27.4141 6.4 20.1016 6.4C12.8906 6.4 7 12.2 7 19.3C7 26.5 12.8906 32.2 20.1016 32.2Z" fill="white"/>
<path id="Layer_25" d="M31.5781 19.4C31.5781 19.4 31.5781 19.3667 31.5781 19.3C31.5781 13.1 26.5 8 20.1016 8C13.8047 8 8.625 13.1 8.625 19.3C8.625 25.6 13.8047 30.6 20.1016 30.6C26.0938 30.6 30.9688 26.2 31.5781 20.5C31.5104 20.5 31.4427 20.5 31.375 20.5H29.2422C28.5312 20.5 28.2266 21.5 27.9219 22.5C27.7188 23.6 27.4141 24.8 26.3984 24.8C25.3828 24.8 25.0781 22.7 24.7734 20.8C24.6719 19.8 24.4688 18.8 24.2656 18.1C24.1641 17.9 23.8594 17.9 23.7578 18.1C23.5547 19 23.3516 20.1 23.1484 21.4C22.8437 23.9 22.4375 26.6 21.2188 26.6C20 26.6 19.7969 23.1 19.4922 19.6C19.3906 17.3 19.2891 15.1 18.7812 13.7C18.7812 13.5 18.4766 13.5 18.375 13.7C17.9688 14.8 17.7656 16.5 17.6641 18.3C17.3594 20.9 17.1562 23.6 16.0391 23.6C14.8203 23.6 14.5156 21.7 14.2109 20.1C14.1094 19.6 14.0078 19.1 13.9062 18.7C13.8047 18.4 13.5 18.4 13.3984 18.6C13.3307 18.8667 13.2292 19.1333 13.0937 19.4C12.6875 20.5 12.2812 21.8 11.0625 21.8H10.4531C10.25 21.8 9.94531 21.5 9.94531 21.2C9.94531 20.8 10.25 20.5 10.4531 20.5H11.0625C11.6719 20.5 11.9766 19.7 12.1797 18.9C12.5859 18 12.8906 17 13.7031 17C14.6172 17 14.9219 18.5 15.125 19.9C15.3281 20.7 15.4297 21.4 15.6328 21.9C15.7344 22.2 16.0391 22.2 16.1406 21.9C16.4453 20.9 16.5469 19.6 16.6484 18.1C16.9531 15.2 17.2578 12.1 18.5781 12.1C20 12.1 20.3047 15.9 20.5078 19.6C20.6094 21.6 20.8125 23.5 21.0156 24.7C21.1172 25 21.4219 25 21.5234 24.8C21.8281 23.8 22.0312 22.5 22.2344 21.2C22.5391 18.8 22.9453 16.4 23.9609 16.4C25.1797 16.4 25.4844 18.6 25.7891 20.6C25.8906 21.6 25.9922 22.5 26.1953 23.2C26.2969 23.4 26.6016 23.4 26.7031 23.2C26.8385 22.8667 26.9401 22.5333 27.0078 22.2C27.4141 20.9 27.8203 19.3 29.2422 19.3H31.375C31.4427 19.3 31.5104 19.3333 31.5781 19.4Z" fill="white"/>
</g>
<defs>
<clipPath id="clip0_133_20">
<rect width="195" height="48" fill="white" transform="translate(0.5)"/>
</clipPath>
</defs>
</svg>
