<svg width="28" height="28" viewBox="0 0 28 28" fill="none" xmlns="http://www.w3.org/2000/svg">
<rect x="0.5" y="0.5" width="27" height="27" rx="13.5" fill="#EFEFEF" stroke="#FBB13C"/>
<path d="M14 5.2C14.792 5.2 15.5253 5.40533 16.2 5.816C16.8747 6.19733 17.4027 6.72533 17.784 7.4C18.1947 8.07467 18.4 8.808 18.4 9.6C18.4 10.392 18.1947 11.1253 17.784 11.8C17.4027 12.4747 16.8747 13.0173 16.2 13.428C15.5253 13.8093 14.792 14 14 14C13.208 14 12.4747 13.8093 11.8 13.428C11.1253 13.0173 10.5827 12.4747 10.172 11.8C9.79067 11.1253 9.6 10.392 9.6 9.6C9.6 8.808 9.79067 8.07467 10.172 7.4C10.5827 6.72533 11.1253 6.19733 11.8 5.816C12.4747 5.40533 13.208 5.2 14 5.2ZM10.7 9.6C10.7 10.5093 11.0227 11.2867 11.668 11.932C12.3133 12.5773 13.0907 12.9 14 12.9C14.9093 12.9 15.6867 12.5773 16.332 11.932C16.9773 11.2867 17.3 10.5093 17.3 9.6C17.3 8.69067 16.9773 7.91333 16.332 7.268C15.6867 6.62267 14.9093 6.3 14 6.3C13.0907 6.3 12.3133 6.62267 11.668 7.268C11.0227 7.91333 10.7 8.69067 10.7 9.6ZM8.5 15.1H19.5C20.116 15.1 20.6293 15.32 21.04 15.76C21.48 16.1707 21.7 16.684 21.7 17.3C21.7 18.2093 21.4947 19.016 21.084 19.72C20.6733 20.424 20.1013 21.0107 19.368 21.48C17.96 22.36 16.1707 22.8 14 22.8C11.8293 22.8 10.04 22.36 8.632 21.48C7.89867 21.0107 7.32667 20.424 6.916 19.72C6.50533 19.016 6.3 18.2093 6.3 17.3C6.3 16.684 6.50533 16.1707 6.916 15.76C7.356 15.32 7.884 15.1 8.5 15.1ZM7.4 17.3C7.4 18.6787 8.00133 19.764 9.204 20.556C10.436 21.3187 12.0347 21.7 14 21.7C15.9653 21.7 17.5493 21.3187 18.752 20.556C19.984 19.764 20.6 18.6787 20.6 17.3C20.6 17.0067 20.4827 16.7573 20.248 16.552C20.0427 16.3173 19.7933 16.2 19.5 16.2H8.5C8.20667 16.2 7.94267 16.3173 7.708 16.552C7.50267 16.7573 7.4 17.0067 7.4 17.3Z" fill="black"/>
</svg>
